<svg width="537" height="197" viewBox="0 0 537 197" fill="none" xmlns="http://www.w3.org/2000/svg">
<g filter="url(#filter0_d_115_1324)">
<g filter="url(#filter1_d_115_1324)">
<path d="M51.5814 86.9353V68.2578H42.2427V58.9191H32.904V49.5804H23.5653V40.2417H14.2266V21.5643H23.5653V12.2256H60.9201V21.5643H70.2588V30.903H51.5814V21.5643H32.904V40.2417H42.2427V49.5804H51.5814V58.9191H60.9201V68.2578H70.2588V86.9353H60.9201V96.274H23.5653V86.9353H14.2266V77.5966H32.904V86.9353H51.5814Z" fill="black"/>
<path d="M126.291 86.9353V12.2256H144.969V86.9353H135.63V96.274H98.2749V86.9353H88.9362V12.2256H107.614V86.9353H126.291Z" fill="black"/>
<path d="M210.339 12.2256V21.5643H219.678V40.2417H201.001V21.5643H182.323V86.9353H201.001V68.2578H219.678V86.9353H210.339V96.274H172.985V86.9353H163.646V21.5643H172.985V12.2256H210.339Z" fill="black"/>
<path d="M285.049 12.2256V21.5643H294.388V40.2417H275.71V21.5643H257.033V86.9353H275.71V68.2578H294.388V86.9353H285.049V96.274H247.694V86.9353H238.356V21.5643H247.694V12.2256H285.049Z" fill="black"/>
<path d="M331.743 58.9191V86.9353H369.098V96.274H313.065V12.2256H369.098V21.5643H331.743V49.5804H359.759V58.9191H331.743Z" fill="black"/>
<path d="M425.13 86.9353V68.2578H415.791V58.9191H406.452V49.5804H397.114V40.2417H387.775V21.5643H397.114V12.2256H434.469V21.5643H443.807V30.903H425.13V21.5643H406.452V40.2417H415.791V49.5804H425.13V58.9191H434.469V68.2578H443.807V86.9353H434.469V96.274H397.114V86.9353H387.775V77.5966H406.452V86.9353H425.13Z" fill="black"/>
<path d="M499.839 86.9353V68.2578H490.501V58.9191H481.162V49.5804H471.823V40.2417H462.485V21.5643H471.823V12.2256H509.178V21.5643H518.517V30.903H499.839V21.5643H481.162V40.2417H490.501V49.5804H499.839V58.9191H509.178V68.2578H518.517V86.9353H509.178V96.274H471.823V86.9353H462.485V77.5966H481.162V86.9353H499.839Z" fill="black"/>
</g>
<g filter="url(#filter2_d_115_1324)">
<path fill-rule="evenodd" clip-rule="evenodd" d="M36.0161 71.371V65.1452H26.6774V55.8064H17.3387V46.4677H8V15.3387H17.3387V6H67.1452V15.3387H76.4839V37.129H48.4677V43.3548H57.8064V52.6936H67.1452V62.0323H76.4839V93.1613H67.1452V102.5H17.3387V93.1613H8V71.371H36.0161ZM39.129 74.4839V80.7097H45.3548V74.4839H39.129ZM51.5806 86.9355H32.9032V77.5968H14.2258V86.9355H23.5645V96.2742H60.9194V86.9355H70.2581V68.2581H60.9194V58.9194H51.5806V49.5806H42.2419V40.2419H32.9032V21.5645H51.5806V30.9032H70.2581V21.5645H60.9194V12.2258H23.5645V21.5645H14.2258V40.2419H23.5645V49.5806H32.9032V58.9194H42.2419V68.2581H51.5806V86.9355ZM45.3548 27.7903H39.129V34.0161H45.3548V27.7903ZM120.065 6H151.194V93.1613H141.855V102.5H92.0484V93.1613H82.7097V6H113.839V80.7097H120.065V6ZM126.29 86.9355H107.613V12.2258H88.9355V86.9355H98.2742V96.2742H135.629V86.9355H144.968V12.2258H126.29V86.9355ZM216.565 6V15.3387H225.903V46.4677H194.774V27.7903H188.548V80.7097H194.774V62.0323H225.903V93.1613H216.565V102.5H166.758V93.1613H157.419V15.3387H166.758V6H216.565ZM201 86.9355H182.323V21.5645H201V40.2419H219.677V21.5645H210.339V12.2258H172.984V21.5645H163.645V86.9355H172.984V96.2742H210.339V86.9355H219.677V68.2581H201V86.9355ZM291.274 6V15.3387H300.613V46.4677H269.484V27.7903H263.258V80.7097H269.484V62.0323H300.613V93.1613H291.274V102.5H241.468V93.1613H232.129V15.3387H241.468V6H291.274ZM275.71 86.9355H257.032V21.5645H275.71V40.2419H294.387V21.5645H285.048V12.2258H247.694V21.5645H238.355V86.9355H247.694V96.2742H285.048V86.9355H294.387V68.2581H275.71V86.9355ZM375.323 80.7097V102.5H306.839V6H375.323V27.7903H337.968V43.3548H365.984V65.1452H337.968V80.7097H375.323ZM331.742 86.9355V58.9194H359.758V49.5806H331.742V21.5645H369.097V12.2258H313.065V96.2742H369.097V86.9355H331.742ZM409.565 71.371V65.1452H400.226V55.8064H390.887V46.4677H381.548V15.3387H390.887V6H440.694V15.3387H450.032V37.129H422.016V43.3548H431.355V52.6936H440.694V62.0323H450.032V93.1613H440.694V102.5H390.887V93.1613H381.548V71.371H409.565ZM412.677 74.4839V80.7097H418.903V74.4839H412.677ZM425.129 86.9355H406.452V77.5968H387.774V86.9355H397.113V96.2742H434.468V86.9355H443.806V68.2581H434.468V58.9194H425.129V49.5806H415.79V40.2419H406.452V21.5645H425.129V30.9032H443.806V21.5645H434.468V12.2258H397.113V21.5645H387.774V40.2419H397.113V49.5806H406.452V58.9194H415.79V68.2581H425.129V86.9355ZM418.903 27.7903H412.677V34.0161H418.903V27.7903ZM484.274 71.371V65.1452H474.935V55.8064H465.597V46.4677H456.258V15.3387H465.597V6H515.403V15.3387H524.742V37.129H496.726V43.3548H506.065V52.6936H515.403V62.0323H524.742V93.1613H515.403V102.5H465.597V93.1613H456.258V71.371H484.274ZM487.387 74.4839V80.7097H493.613V74.4839H487.387ZM499.839 86.9355H481.161V77.5968H462.484V86.9355H471.823V96.2742H509.177V86.9355H518.516V68.2581H509.177V58.9194H499.839V49.5806H490.5V40.2419H481.161V21.5645H499.839V30.9032H518.516V21.5645H509.177V12.2258H471.823V21.5645H462.484V40.2419H471.823V49.5806H481.161V58.9194H490.5V68.2581H499.839V86.9355ZM493.613 27.7903H487.387V34.0161H493.613V27.7903Z" fill="#FF00F5"/>
</g>
<g filter="url(#filter3_d_115_1324)">
<path d="M161.5 144.625V153.375H174.625V157.75H161.5V179.625H174.625V184H157.125V179.625H152.75V157.75H148.375V153.375H152.75V144.625H161.5ZM205.25 153.375V157.75H209.625V184H200.875V157.75H192.125V184H183.375V144.625H192.125V153.375H205.25ZM222.75 157.75V153.375H240.25V157.75H244.625V170.875H227.125V179.625H240.25V184H222.75V179.625H218.375V157.75H222.75ZM235.875 157.75H227.125V166.5H235.875V157.75ZM297.125 166.5V179.625H314.625V184H288.375V144.625H314.625V149H297.125V162.125H310.25V166.5H297.125ZM323.375 184V144.625H332.125V153.375H336.5V157.75H340.875V162.125H345.25V144.625H354V184H345.25V170.875H340.875V166.5H336.5V162.125H332.125V184H323.375ZM380.25 149V153.375H384.625V175.25H380.25V179.625H375.875V184H358.375V144.625H375.875V149H380.25ZM375.875 153.375H371.5V149H367.125V179.625H371.5V175.25H375.875V153.375Z" fill="#42FFE8"/>
</g>
</g>
<defs>
<filter id="filter0_d_115_1324" x="4" y="6" width="524.742" height="186" filterUnits="userSpaceOnUse" color-interpolation-filters="sRGB">
<feFlood flood-opacity="0" result="BackgroundImageFix"/>
<feColorMatrix in="SourceAlpha" type="matrix" values="0 0 0 0 0 0 0 0 0 0 0 0 0 0 0 0 0 0 127 0" result="hardAlpha"/>
<feOffset dy="4"/>
<feGaussianBlur stdDeviation="2"/>
<feComposite in2="hardAlpha" operator="out"/>
<feColorMatrix type="matrix" values="0 0 0 0 0 0 0 0 0 0 0 0 0 0 0 0 0 0 0.25 0"/>
<feBlend mode="normal" in2="BackgroundImageFix" result="effect1_dropShadow_115_1324"/>
<feBlend mode="normal" in="SourceGraphic" in2="effect1_dropShadow_115_1324" result="shape"/>
</filter>
<filter id="filter1_d_115_1324" x="6.22656" y="6.22559" width="524.289" height="104.049" filterUnits="userSpaceOnUse" color-interpolation-filters="sRGB">
<feFlood flood-opacity="0" result="BackgroundImageFix"/>
<feColorMatrix in="SourceAlpha" type="matrix" values="0 0 0 0 0 0 0 0 0 0 0 0 0 0 0 0 0 0 127 0" result="hardAlpha"/>
<feOffset dx="2" dy="4"/>
<feGaussianBlur stdDeviation="5"/>
<feComposite in2="hardAlpha" operator="out"/>
<feColorMatrix type="matrix" values="0 0 0 0 0 0 0 0 0 0 0 0 0 0 0 0 0 0 0.25 0"/>
<feBlend mode="normal" in2="BackgroundImageFix" result="effect1_dropShadow_115_1324"/>
<feBlend mode="normal" in="SourceGraphic" in2="effect1_dropShadow_115_1324" result="shape"/>
</filter>
<filter id="filter2_d_115_1324" x="0" y="0" width="536.742" height="116.5" filterUnits="userSpaceOnUse" color-interpolation-filters="sRGB">
<feFlood flood-opacity="0" result="BackgroundImageFix"/>
<feColorMatrix in="SourceAlpha" type="matrix" values="0 0 0 0 0 0 0 0 0 0 0 0 0 0 0 0 0 0 127 0" result="hardAlpha"/>
<feOffset dx="2" dy="4"/>
<feGaussianBlur stdDeviation="5"/>
<feComposite in2="hardAlpha" operator="out"/>
<feColorMatrix type="matrix" values="0 0 0 0 0 0 0 0 0 0 0 0 0 0 0 0 0 0 0.25 0"/>
<feBlend mode="normal" in2="BackgroundImageFix" result="effect1_dropShadow_115_1324"/>
<feBlend mode="normal" in="SourceGraphic" in2="effect1_dropShadow_115_1324" result="shape"/>
</filter>
<filter id="filter3_d_115_1324" x="146.375" y="144.625" width="244.25" height="47.375" filterUnits="userSpaceOnUse" color-interpolation-filters="sRGB">
<feFlood flood-opacity="0" result="BackgroundImageFix"/>
<feColorMatrix in="SourceAlpha" type="matrix" values="0 0 0 0 0 0 0 0 0 0 0 0 0 0 0 0 0 0 127 0" result="hardAlpha"/>
<feOffset dx="2" dy="4"/>
<feGaussianBlur stdDeviation="2"/>
<feComposite in2="hardAlpha" operator="out"/>
<feColorMatrix type="matrix" values="0 0 0 0 0 0 0 0 0 0 0 0 0 0 0 0 0 0 0.25 0"/>
<feBlend mode="normal" in2="BackgroundImageFix" result="effect1_dropShadow_115_1324"/>
<feBlend mode="normal" in="SourceGraphic" in2="effect1_dropShadow_115_1324" result="shape"/>
</filter>
</defs>
</svg>
